# xmcd
#
# Track frame offsets:
#       150
#       10856
#       25995
#       40384
#       54821
#       69409
#       85331
#       100329
#       111028
#       126147
#       140585
#       155182
#
# Disc length: 2279 seconds
#
# Revision: 0
# Processed by: cddbd v1.5.1PL0 Copyright (c) Steve Scherf et al.
# Submitted via: WhereIsIt 3.62
#
DISCID=9e08e50c
DTITLE=김지희 - 1집
DYEAR=1900
DGENRE=
TTITLE0=시시콜콜한 남자
TTITLE1=모닥불 사랑
TTITLE2=엇갈린 첫사랑
TTITLE3=장미꽃 향기
TTITLE4=아름다워라
TTITLE5=영시의 사랑
TTITLE6=월악산
TTITLE7=시시콜콜한 남자 (Instrumantal)
TTITLE8=모닥불 사랑 (Instrumantal)
TTITLE9=장미꽃 향기 (Instrumantal)
TTITLE10=아름다워라 (Instrumantal)
TTITLE11=영시의 사랑 (Instrumantal)
EXTD=
EXTT0=
EXTT1=
EXTT2=
EXTT3=
EXTT4=
EXTT5=
EXTT6=
EXTT7=
EXTT8=
EXTT9=
EXTT10=
EXTT11=
PLAYORDER=
